PathFileType	4	(X/Y/Z)	/Users/visionmauri/1_1_1_f_Sports2D/1_1_1_f_Sports2D_px_person00.trc
DataRate	CameraRate	NumFrames	NumMarkers	Units	OrigDataRate	OrigDataStartFrame	OrigNumFrames
30.0	30.0	4	22	m	30.0	44	358
Frame#	Time	Hip			RHip			RKnee			RAnkle			RBigToe			RSmallToe			RHeel			LHip			LKnee			LAnkle			LBigToe			LSmallToe			LHeel			Neck			Head			Nose			RShoulder			RElbow			RWrist			LShoulder			LElbow			LWrist			
		X1	Y1	Z1	X2	Y2	Z2	X3	Y3	Z3	X4	Y4	Z4	X5	Y5	Z5	X6	Y6	Z6	X7	Y7	Z7	X8	Y8	Z8	X9	Y9	Z9	X10	Y10	Z10	X11	Y11	Z11	X12	Y12	Z12	X13	Y13	Z13	X14	Y14	Z14	X15	Y15	Z15	X16	Y16	Z16	X17	Y17	Z17	X18	Y18	Z18	X19	Y19	Z19	X20	Y20	Z20	X21	Y21	Z21	X22	Y22	Z22
44	1.4707749766573295	578.846637101214	946.1790452299911	0.0	649.5634757490163	959.6846134327757	0.0	635.2409409721483	1278.542144070949	0.0	607.9387135266795	1559.1550723362539	0.0	579.3438854651887	1603.2655240575377	0.0	630.4415021493235	1614.631339926016	0.0	602.5612109365221	1603.3494942468444	0.0	509.21900750331343	950.2435454003707	0.0	492.2163720535985	1171.779458522623	0.0	484.89760144223754	1222.7259951578883	0.0	498.18652448279414	1450.5179913821987	0.0	457.6239855696863	1453.2075110917006	0.0	491.5453349627508	1312.800591936707	0.0	584.5414893896436	567.6784989115175	0.0	582.9819856814431	442.0023419176907	0.0	579.2606999451843	524.8641114992633	0.0	712.2200384837458	604.0038577383679	0.0	795.1806131254843	767.6166511082272	0.0	806.8915262863117	948.4762386984831	0.0	462.9915833720162	604.2660891232873	0.0	402.46336590606944	804.5961372440863	0.0	405.2119723814069	820.2118009117162	0.0
45	1.504201680672269	579.2190317984624	945.4114432747347	0.0	649.4109640796605	960.6280478009513	0.0	634.4823586207784	1279.1870443843968	0.0	607.9435608304234	1559.1289792991047	0.0	580.057679950737	1598.6531784811516	0.0	634.1677847584123	1612.6899082550085	0.0	603.2441598555422	1604.238234443519	0.0	509.3149866908644	951.1116634634691	0.0	491.62835803555987	1168.2922120164756	0.0	481.52588729389976	1297.4382795567712	0.0	498.3532272849422	1564.5946787700557	0.0	454.88628902387177	1556.2467693042076	0.0	489.51618915306494	1437.504917213068	0.0	585.755964525918	567.1529505724342	0.0	582.3650410803783	443.27798213252936	0.0	577.6706802503741	524.7517204235481	0.0	712.6073515145172	604.9367470344882	0.0	795.2519403087134	772.1924132818315	0.0	805.5171015576593	947.3346219273177	0.0	464.28977572198727	604.948625804257	0.0	401.9905089089111	804.9711532231851	0.0	406.9210068222935	822.9008163549685	0.0
46	1.537628384687208	580.0846299823257	943.7378354011202	0.0	650.1593726146442	961.3171270059537	0.0	633.4473869892344	1279.3243316316266	0.0	608.2385790293367	1559.1207074511449	0.0	581.6947474011529	1595.5083184870198	0.0	638.4776458855465	1612.6517835465108	0.0	604.4154019999564	1602.5860470145028	0.0	509.2311755295077	950.4879178089304	0.0	490.42384185076827	1166.7147095186422	0.0	479.0380915437889	1387.1476910793494	0.0	497.66633062463154	1585.175087960289	0.0	455.02833381555627	1572.9356594003898	0.0	488.26522348433014	1507.4155459629578	0.0	586.8924995385365	566.3619070675458	0.0	581.7925273506643	444.9409703657535	0.0	577.5005934686582	524.7768644574103	0.0	712.4433615345451	606.5211494001959	0.0	795.2077480099058	777.0638146802777	0.0	803.764031706586	944.9709504713173	0.0	465.65612746292896	605.4140810478326	0.0	401.34982629751903	805.3493498368249	0.0	409.1834814164849	825.4766993532386	0.0
47	1.5710550887021475	580.8703318020557	942.4773023124603	0.0	650.6326281066677	961.9619210866541	0.0	632.0434565866658	1278.958914807026	0.0	608.2490515621489	1559.1641504982556	0.0	583.8020341836819	1594.14516755562	0.0	642.18655268228	1612.6610437108484	0.0	605.0615898160146	1600.0042120130079	0.0	508.9591241293535	948.9099782999165	0.0	489.060738917729	1166.7730923281024	0.0	477.3768661227457	1446.5355365331532	0.0	496.2646503023804	1562.8387130104675	0.0	454.81206980086256	1556.6714962420165	0.0	487.14750933631814	1514.738154492007	0.0	587.3475587417802	566.0488759192788	0.0	581.0766597915308	445.684094137593	0.0	578.1409218245075	524.9344970738945	0.0	712.7514334954809	608.1924299343144	0.0	795.1837227861067	781.5211444541543	0.0	800.8328709862184	943.1601316585858	0.0	466.4241842785786	605.5164656821062	0.0	401.18447632754294	804.4752909304328	0.0	410.66283249692964	826.2755282583736	0.0
